<?xml version="1.0" encoding="utf-8"?><svg xml:space="preserve" viewBox="0 0 100 100" y="0" x="0" xmlns="http://www.w3.org/2000/svg" id="圖層_1" version="1.1" width="200px" height="200px" xmlns:xlink="http://www.w3.org/1999/xlink" style="width:100%;height:100%;background-size:initial;background-repeat:initial;background-position-y:initial;background-position-x:initial;background-origin:initial;background-image:initial;background-color:rgb(255, 255, 255);background-clip:initial;background-attachment:initial;animation-play-state:paused" ><g class="ldl-scale" style="transform-origin:50% 50%;transform:rotate(0deg) scale(0.8, 0.8);animation-play-state:paused" ><path fill="#d1d1d1" d="M14.3 89.899c-3.749 0-6.8-3.05-6.8-6.8v-8.575c0-3.749 3.05-6.8 6.8-6.8h71.4c3.749 0 6.8 3.05 6.8 6.8V83.1c0 3.749-3.05 6.8-6.8 6.8H14.3zm0-28.812c-3.749 0-6.8-3.05-6.8-6.8v-8.575c0-3.749 3.05-6.8 6.8-6.8h71.4c3.749 0 6.8 3.05 6.8 6.8v8.575c0 3.749-3.05 6.8-6.8 6.8H14.3zm0-28.813c-3.749 0-6.8-3.05-6.8-6.8V16.9c0-3.749 3.05-6.8 6.8-6.8h71.4c3.749 0 6.8 3.05 6.8 6.8v8.575c0 3.749-3.05 6.8-6.8 6.8l-71.4-.001z" style="fill:rgb(209, 209, 209);animation-play-state:paused" ></path>
<path fill="#464646" d="M88.394 25.475a2.701 2.701 0 0 1-2.693 2.693H14.3a2.701 2.701 0 0 1-2.693-2.693V16.9a2.701 2.701 0 0 1 2.693-2.693h71.4a2.701 2.701 0 0 1 2.693 2.693l.001 8.575zm0 20.238a2.701 2.701 0 0 0-2.693-2.693H14.3a2.701 2.701 0 0 0-2.693 2.693v8.575a2.701 2.701 0 0 0 2.693 2.693h71.4a2.701 2.701 0 0 0 2.693-2.693l.001-8.575zm0 28.812a2.701 2.701 0 0 0-2.693-2.693H14.3a2.701 2.701 0 0 0-2.693 2.693V83.1a2.701 2.701 0 0 0 2.693 2.693h71.4a2.701 2.701 0 0 0 2.693-2.693l.001-8.575z" style="fill:rgb(70, 70, 70);animation-play-state:paused" ></path>
<metadata xmlns:d="https://loading.io/stock/" style="animation-play-state:paused" ><d:name style="animation-play-state:paused" >bars</d:name>
<d:tags style="animation-play-state:paused" >hamburger,menu,navigation,bars,map</d:tags>
<d:license style="animation-play-state:paused" >free</d:license>
<d:slug style="animation-play-state:paused" >rszdcm</d:slug></metadata></g><!-- generated by https://loading.io/ --></svg>