<svg width="16" height="16" viewBox="0 0 16 16" fill="none" xmlns="http://www.w3.org/2000/svg">
<g clip-path="url(#clip0_171_7778)">
<path d="M2 6V14.5C2 15.3284 2.67157 16 3.5 16H12.5C13.3284 16 14 15.3284 14 14.5V6H2Z" fill="#5B5CE2"/>
<path fill-rule="evenodd" clip-rule="evenodd" d="M11 2V1C11 0.447715 10.5523 0 10 0H6C5.44772 0 5 0.447715 5 1V2H0.5C0.223858 2 0 2.22386 0 2.5V3.5C0 3.77614 0.223858 4 0.5 4H15.5C15.7761 4 16 3.77614 16 3.5V2.5C16 2.22386 15.7761 2 15.5 2H11Z" fill="#9999EE"/>
</g>
<defs>
<clipPath id="clip0_171_7778">
<rect width="16" height="16" fill="white"/>
</clipPath>
</defs>
</svg>
