<svg width="16" height="16" viewBox="0 0 16 16" fill="none" xmlns="http://www.w3.org/2000/svg">
<g clip-path="url(#clip0_171_7786)">
<path d="M15.5566 1.01258C16.148 1.60404 16.1415 2.56501 15.542 3.14832L8.93672 9.57508C8.65668 9.84755 8.28139 10 7.89068 10L5.99999 9.99999L5.99999 8.11441C5.99999 7.72067 6.15481 7.34272 6.43102 7.06213L12.8983 0.492289C13.4827 -0.101376 14.4389 -0.105136 15.0279 0.483912L15.5566 1.01258Z" fill="#9999EE"/>
<path d="M7 1H4H3C1.89543 1 1 1.89543 1 3V13C1 14.1046 1.89543 15 3 15H13C14.1046 15 15 14.1046 15 13V10" stroke="#5B5CE2" stroke-width="2" stroke-linecap="round" stroke-linejoin="round"/>
</g>
<defs>
<clipPath id="clip0_171_7786">
<rect width="16" height="16" fill="white"/>
</clipPath>
</defs>
</svg>
