<?xml version="1.0" encoding="utf-8"?><svg xml:space="preserve" viewBox="0 0 100 100" y="0" x="0" xmlns="http://www.w3.org/2000/svg" id="圖層_1" version="1.1" width="200px" height="200px" xmlns:xlink="http://www.w3.org/1999/xlink" style="width:100%;height:100%;background-size:initial;background-repeat:initial;background-position-y:initial;background-position-x:initial;background-origin:initial;background-image:initial;background-color:rgb(255, 255, 255);background-clip:initial;background-attachment:initial;animation-play-state:paused" ><g class="ldl-scale" style="transform-origin:50% 50%;transform:rotate(0deg) scale(0.8, 0.8);animation-play-state:paused" ><path fill="#d1d1d1" d="M90.816 71.242c-.159-4.711-2.321-8.735-6.252-11.639-2.754-2.034-5.923-3.462-10.276-4.631a96.632 96.632 0 0 0-3.521-.853c-.855-.196-1.662-.38-2.47-.583-.966-.242-1.779-.382-2.486-.622-.405-.136-1.02-.294-1.335-.549-.223-.181-.112-.626.023-.88 1.538-2.884 2.911-5.894 3.591-9.414 3.62-2.929 3.746-7.24 3.803-9.181.04-1.373-.296-2.526-.956-3.393.014-1.406.024-2.855-.045-4.325-.08-1.664-.337-3.228-.766-4.648-1.421-4.704-4.566-7.911-9.096-9.272a4.57 4.57 0 0 0-.308-.082C59.15 9.278 56.421 7.5 51.72 7.5c-2.915 0-5.856.662-8.093 1.239-3.697.953-6.517 2.606-8.619 5.054-2.899 3.375-4.184 7.535-3.928 12.719.053 1.084.162 2.143.279 3.174-.673.826-1.133 2.027-1.089 3.775.089 3.497 1.34 6.272 3.928 8.695.096.358.185.74.279 1.138.185.786.376 1.6.661 2.459.575 1.733 1.697 3.118 2.088 4.693.331 1.329.162 1.528-.653 1.803-.323.109-1.086.357-1.43.453-1.43.402-2.738.651-4.172 1.042a439.416 439.416 0 0 0-6.226 1.731c-2.575.744-6.375 2.048-9.629 4.771-2.339 1.955-5.096 4.768-5.666 9.189a35.99 35.99 0 0 0-.04 8.706c.28 2.437 1.519 4.318 3.682 5.593 3.525 2.076 7.451 3.764 12.005 5.161 7.391 2.266 15.277 3.477 23.441 3.596.515.008 1.028.011 1.542.011 9.436 0 17.945-1.255 26.013-3.836 3.9-1.248 7.32-2.767 10.456-4.643 3.104-1.857 3.889-4.327 4.002-6.073.024-.379.051-.759.077-1.139.124-1.797.251-3.652.188-5.569z" style="fill:rgb(209, 209, 209);animation-play-state:paused" ></path>
<path fill="#464646" d="M86.746 77.703c-.091 1.427-.972 2.337-2.155 3.045-3.048 1.823-6.288 3.204-9.661 4.283-8.568 2.74-17.369 3.773-26.337 3.644-7.622-.111-15.089-1.193-22.378-3.428-3.899-1.196-7.659-2.722-11.188-4.801-1.091-.643-1.684-1.474-1.83-2.743-.299-2.6-.301-5.191.034-7.783.378-2.928 2.196-4.965 4.331-6.751 2.406-2.013 5.267-3.173 8.242-4.032 3.487-1.008 7-1.926 10.494-2.907 1.19 3.136 2.782 5.734 4.757 7.744 2.732 2.78 6.132 4.311 9.574 4.311 5.11 0 9.827-3.264 12.616-8.731a31.124 31.124 0 0 0 1.374-3.112 35.36 35.36 0 0 0 2.749.793c1.972.495 3.968.894 5.931 1.422 3.207.861 6.289 2.013 8.999 4.015 2.939 2.17 4.584 5.062 4.708 8.701.07 2.104-.125 4.222-.26 6.33zM37.048 39.596c.322.287.586.72.709 1.135.372 1.262.584 2.573.998 3.82 1.005 3.027 2.539 5.786 4.996 7.852 2.285 1.922 4.944 2.843 7.558 2.843 3.862 0 7.626-2.009 9.944-5.762 1.661-2.693 2.658-5.604 3.195-8.701.072-.409.201-.976.494-1.152 2.622-1.582 3.058-4.144 3.137-6.851.03-1.009-.209-1.177-.972-1.255 0-2.07.072-4.124-.026-6.17-.06-1.252-.246-2.531-.608-3.729-1.01-3.344-3.119-5.694-6.543-6.722-.525-.158-1.285.029-1.571-.47-1.355-2.362-3.858-3.121-6.642-3.121-2.355 0-4.91.543-7.141 1.118-2.576.664-4.908 1.784-6.679 3.846-2.49 2.899-3.194 6.357-3.012 10.047.088 1.782.349 3.556.536 5.379-1.333.106-1.37.588-1.342 1.661.069 2.643.985 4.469 2.969 6.232z" style="fill:rgb(70, 70, 70);animation-play-state:paused" ></path>
<metadata xmlns:d="https://loading.io/stock/" style="animation-play-state:paused" ><d:name style="animation-play-state:paused" >avatar</d:name>
<d:tags style="animation-play-state:paused" >profile,user,account,avatar,map</d:tags>
<d:license style="animation-play-state:paused" >free</d:license>
<d:slug style="animation-play-state:paused" >zdm2cx</d:slug></metadata></g><!-- generated by https://loading.io/ --></svg>