<?xml version="1.0" encoding="utf-8"?><svg xml:space="preserve" viewBox="0 0 100 100" y="0" x="0" xmlns="http://www.w3.org/2000/svg" id="圖層_1" version="1.1" width="200px" height="200px" xmlns:xlink="http://www.w3.org/1999/xlink" style="width:100%;height:100%;background-size:initial;background-repeat:initial;background-position-y:initial;background-position-x:initial;background-origin:initial;background-image:initial;background-color:rgb(255, 255, 255);background-clip:initial;background-attachment:initial;animation-play-state:paused" ><g class="ldl-scale" style="transform-origin:50% 50%;transform:rotate(0deg) scale(0.8, 0.8);animation-play-state:paused" ><path fill="#d1d1d1" d="M92.479 35.513c-.095-.994-.679-3.432-4.035-4.612L56.293 19.596c-1.354-.476-3.086-.738-4.877-.738-1.206 0-2.991.118-4.653.678L13.125 30.889c-3.385 1.142-3.986 3.578-4.088 4.573-.099.967-.002 3.364 2.841 5.154-1.517.944-2.695 2.845-2.695 5.834v15.595c0 1.063-.204 2.021-.345 2.424a3.746 3.746 0 0 0-.842 2.367v1.21c0 .335.045.666.132.985-.018.053-.039.11-.066.166-.782 1.655-.746 3.847.096 5.722.804 1.791 2.243 3.071 4.053 3.602.48.141.984.212 1.499.212 3.194 0 6.103-2.77 7.28-4.631 1.401-2.217.967-3.956.569-4.814a3.75 3.75 0 0 0 .195-1.192v-.5c.792 1.416 1.895 2.665 3.209 3.524.175.115.359.214.551.298l20.014 8.742c1.767.811 3.655.982 4.934.982 1.279 0 3.169-.171 4.937-.984l19.998-8.775c.178-.078.35-.17.514-.275 2.939-1.88 4.856-5.677 4.559-9.029-.124-1.399-.806-4.188-1.586-6.486-.595-1.752-1.706-4.674-2.854-6.97l13.366-7.817c3.069-1.794 3.178-4.3 3.083-5.293z" style="fill:rgb(209, 209, 209);animation-play-state:paused" ></path>
<path fill="#454545" d="M14.008 37.531c-1.78-1.041-1.638-2.432.316-3.091l33.638-11.353c1.953-.659 5.143-.639 7.088.045l32.152 11.304c1.945.684 2.08 2.095.3 3.135L54.025 57.149c-1.78 1.041-4.692 1.041-6.471 0L14.008 37.531zm42.393 24.501l-4.588 2.683c-.743.435-1.96.435-2.704 0l-4.588-2.683-16.054-9.388c-1.78-1.041-3.386-.212-3.569 1.841 0 0-.538 5.992-.71 7.928s1.099 4.444 2.824 5.572l20.05 8.757c1.869.871 4.926.871 6.795 0l20.03-8.79c1.737-1.111 3.017-3.603 2.845-5.54-.172-1.936-2.5-10.81-4.279-9.769l-16.052 9.389zm-38.242 8.835c-.49-1.032-.559-2.278-.153-2.77v-.551-.711c-.653-.573-1.187-2.73-1.187-4.791V48.668c0-2.062-.874-4.248-1.944-4.857-1.069-.61-1.944.578-1.944 2.64v15.595c0 2.062-.534 4.218-1.187 4.791v1.21c.338.457.206 1.696-.294 2.753-.5 1.057-.119 3.558 1.817 4.126 1.935.568 5.382-3.027 4.892-4.059z" style="fill:rgb(69, 69, 69);animation-play-state:paused" ></path>
<metadata xmlns:d="https://loading.io/stock/" style="animation-play-state:paused" ><d:name style="animation-play-state:paused" >university</d:name>
<d:tags style="animation-play-state:paused" >college,graduate,department,school,master,doctor,phd,academy,university,map</d:tags>
<d:license style="animation-play-state:paused" >free</d:license>
<d:slug style="animation-play-state:paused" >ono46u</d:slug></metadata></g><!-- generated by https://loading.io/ --></svg>